<svg width="28" height="28" viewBox="0 0 23 29" fill="none" xmlns="http://www.w3.org/2000/svg">
    <path d="M20.8107 0H2.20176C1.62113 0 1.06427 0.230656 0.6537 0.641228C0.243129 1.0518 0.0124721 1.60865 0.0124721 2.18929V24.0822C-0.00415738 24.1947 -0.00415738 24.309 0.0124721 24.4215C0.187615 26.7093 1.53403 28.4607 3.21978 28.4607H20.8107C21.3913 28.4607 21.9482 28.2301 22.3588 27.8195C22.7693 27.4089 23 26.8521 23 26.2715V2.18929C23 1.60865 22.7693 1.0518 22.3588 0.641228C21.9482 0.230656 21.3913 0 20.8107 0ZM2.20176 2.18929H3.2964V9.8518C3.28983 10.0542 3.33956 10.2545 3.44006 10.4304C3.54055 10.6063 3.68787 10.7508 3.86562 10.8479C4.03322 10.933 4.22375 10.9619 4.40905 10.9304C4.59435 10.8989 4.76458 10.8085 4.89459 10.6728L7.08387 8.39592L9.27316 10.6728C9.4445 10.8448 9.67626 10.943 9.919 10.9464C10.0529 10.9462 10.1847 10.9124 10.3021 10.8479C10.4962 10.7632 10.6616 10.624 10.7782 10.4472C10.8947 10.2704 10.9575 10.0636 10.9589 9.8518V2.18929H20.8107V19.7036H3.21978C2.86872 19.7032 2.52162 19.7778 2.20176 19.9225V2.18929ZM3.21978 26.2715C2.88044 26.2715 2.20176 25.4395 2.20176 24.0822C2.20176 22.7248 2.83665 21.8929 3.17599 21.8929H20.8107V22.9875H6.58034C6.29002 22.9875 6.01159 23.1029 5.80631 23.3081C5.60102 23.5134 5.48569 23.7919 5.48569 24.0822C5.48569 24.3725 5.60102 24.6509 5.80631 24.8562C6.01159 25.0615 6.29002 25.1768 6.58034 25.1768H20.8107V26.2715H3.21978Z" fill="white"/>
    </svg>
    