<svg
  width="28"
  height="28"
  viewBox="0 0 25 25"
  fill="none"
  xmlns="http://www.w3.org/2000/svg"
>
    <path
    d="M24.4207 22.8296L18.036 16.445C19.4725 14.6521 20.2536 12.4224 20.25 10.125C20.25 4.53319 15.7171 0 10.125 0C4.53319 0 0 4.53319 0 10.125C0 15.7168 4.53319 20.25 10.125 20.25C12.5156 20.25 14.7128 19.4214 16.445 18.0357L22.8296 24.4204C22.934 24.525 23.0579 24.608 23.1944 24.6645C23.3309 24.7211 23.4772 24.7502 23.625 24.75C23.8475 24.75 24.065 24.684 24.25 24.5604C24.435 24.4368 24.5792 24.2612 24.6644 24.0556C24.7495 23.8501 24.7718 23.6239 24.7285 23.4057C24.6851 23.1874 24.578 22.987 24.4207 22.8296ZM10.125 18C5.77575 18 2.25 14.4742 2.25 10.125C2.25 5.77575 5.77575 2.25 10.125 2.25C14.4745 2.25 18 5.77575 18 10.125C18 14.4742 14.4745 18 10.125 18Z"
    fill="white"
  />
</svg>
